<svg width="1439" height="1042" viewBox="0 0 1439 1042" fill="none" xmlns="http://www.w3.org/2000/svg">
<path d="M1436.81 984.995L1436.9 814.944H1361.29L1361.26 871.627H1285.64L1285.63 899.969H1210.01H1134.39H1058.88L1058.86 928.311H983.247L983.279 871.627H907.663L907.616 956.653H832L832.047 871.627H756.432L756.416 899.969H680.8L680.879 758.26H605.263H529.647L529.553 928.311H453.937L453.874 1041.68H378.259L378.385 814.944H302.869L302.743 1041.68H227.127L227.174 956.653H151.558L151.653 786.602L76.0374 786.602L75.9271 984.995H0.311423L0.437485 758.26H76.0532H151.669H227.285L302.9 758.26H378.416H454.032H529.647H605.263H680.879H756.495H832.11H907.726H983.342H1058.96H1134.47H1210.09H1285.7H1361.32H1436.94L1436.81 984.995Z" fill="#F5F5F5"/>
<rect x="0.279846" y="758.26" width="758.214" height="1444.89" transform="rotate(-90 0.279846 758.26)" fill="#F5F5F5"/>
</svg>
