<svg width="118" height="79" viewBox="0 0 118 79" fill="none" xmlns="http://www.w3.org/2000/svg">
<path d="M79.1262 47.6148L104.691 47.521" stroke="#F5F5F5" stroke-width="3.99447" stroke-miterlimit="10"/>
<path d="M112.627 47.4879L102.069 52.821L104.691 47.521L102.025 42.2431L112.627 47.4879Z" stroke="#F5F5F5" stroke-width="3.99447" stroke-miterlimit="10"/>
<path d="M19.2212 76.4305L57.662 4.39878L96.1083 76.4305H19.2212Z" stroke="#F5F5F5" stroke-width="3.99447" stroke-miterlimit="10"/>
<path d="M80.081 52.4183C80.081 53.1518 80.0423 53.8853 79.9706 54.6133C79.8988 55.3468 79.794 56.0693 79.6505 56.7918C79.507 57.5087 79.3249 58.2202 79.1152 58.9206C78.8999 59.6265 78.6515 60.3159 78.3701 60.9942C78.0941 61.6726 77.7795 62.3344 77.4318 62.9796C77.0841 63.6304 76.7088 64.2591 76.3004 64.8658C75.892 65.4779 75.4559 66.068 74.9868 66.6361C74.5232 67.1986 74.032 67.7446 73.5132 68.263C72.9944 68.7814 72.448 69.2723 71.8796 69.741C71.3111 70.2043 70.7261 70.64 70.1134 71.0481C69.5008 71.4562 68.8716 71.8368 68.2259 72.1787C67.5802 72.5261 66.9123 72.8405 66.2335 73.1218C65.5601 73.403 64.8647 73.6512 64.1638 73.8608C63.4629 74.0759 62.7509 74.2523 62.0279 74.3957C61.3104 74.5391 60.5819 74.6494 59.8533 74.7211C59.1193 74.7928 58.3908 74.8259 57.6567 74.8259C56.9171 74.8259 56.1886 74.7928 55.4546 74.7211C54.726 74.6494 53.9975 74.5391 53.28 74.3957C52.557 74.2523 51.8451 74.0759 51.1441 73.8608C50.4432 73.6512 49.7533 73.403 49.0745 73.1218C48.3956 72.8405 47.7278 72.5261 47.082 72.1787C46.4363 71.8368 45.8071 71.4562 45.1945 71.0481C44.5819 70.64 43.9968 70.2043 43.4284 69.741C42.8599 69.2723 42.3135 68.7814 41.7947 68.263C41.2759 67.7446 40.7847 67.1986 40.3211 66.6361C39.852 66.068 39.416 65.4779 39.0076 64.8658C38.5991 64.2591 38.2238 63.6304 37.8761 62.9796C37.5284 62.3344 37.2138 61.6726 36.9379 60.9942C36.6564 60.3159 36.408 59.6265 36.1928 58.9206C35.983 58.2202 35.8009 57.5087 35.6574 56.7918C35.5139 56.0693 35.4091 55.3468 35.3373 54.6133C35.2656 53.8853 35.2269 53.1518 35.2269 52.4183C35.2269 51.6848 35.2656 50.9513 35.3373 50.2234C35.4091 49.4899 35.5139 48.7674 35.6574 48.0449C35.8009 47.328 35.983 46.6165 36.1928 45.9106C36.408 45.2102 36.6564 44.5208 36.9379 43.8425C37.2138 43.1641 37.5284 42.5023 37.8761 41.8516C38.2238 41.2063 38.5991 40.5776 39.0076 39.9654C39.416 39.3588 39.852 38.7687 40.3211 38.2006C40.7847 37.6326 41.2759 37.0921 41.7947 36.5737C42.3135 36.0553 42.8599 35.5589 43.4284 35.0957C43.9968 34.6324 44.5819 34.1912 45.1945 33.7831C45.8071 33.375 46.4363 32.9999 47.082 32.6525C47.7278 32.3106 48.3956 31.9962 49.0745 31.7149C49.7533 31.4337 50.4432 31.1855 51.1441 30.9759C51.8451 30.7608 52.557 30.5844 53.28 30.441C53.9975 30.2976 54.726 30.1873 55.4546 30.1156C56.1886 30.0439 56.9171 30.0108 57.6567 30.0108C58.3908 30.0108 59.1193 30.0439 59.8533 30.1156C60.5819 30.1873 61.3104 30.2976 62.0279 30.441C62.7509 30.5844 63.4629 30.7608 64.1638 30.9759C64.8647 31.1855 65.5601 31.4337 66.2335 31.7149C66.9123 31.9962 67.5802 32.3106 68.2259 32.6525C68.8716 32.9999 69.5008 33.375 70.1134 33.7831C70.7261 34.1912 71.3111 34.6324 71.8796 35.0957C72.448 35.5589 72.9944 36.0553 73.5132 36.5737C74.032 37.0921 74.5232 37.6326 74.9868 38.2006C75.4559 38.7687 75.892 39.3588 76.3004 39.9654C76.7088 40.5776 77.0841 41.2063 77.4318 41.8516C77.7795 42.5023 78.0941 43.1641 78.3701 43.8425C78.6515 44.5208 78.8999 45.2102 79.1152 45.9106C79.3249 46.6165 79.507 47.328 79.6505 48.0449C79.794 48.7674 79.8988 49.4899 79.9706 50.2234C80.0423 50.9513 80.081 51.6848 80.081 52.4183V52.4183Z" stroke="#F5F5F5" stroke-width="3.99447"/>
<path d="M11.1967 38.0131H40.0342" stroke="#F5F5F5" stroke-width="3.99447" stroke-miterlimit="10"/>
<path d="M5.76025 47.6148H34.5977" stroke="#F5F5F5" stroke-width="3.99447" stroke-miterlimit="10"/>
<path d="M0.953125 57.2164H29.7906" stroke="#F5F5F5" stroke-width="3.99447" stroke-miterlimit="10"/>
</svg>
