<svg width="78" height="78" viewBox="0 0 78 78" fill="none" xmlns="http://www.w3.org/2000/svg">
<path fill-rule="evenodd" clip-rule="evenodd" d="M0 12.1875C0 5.45654 5.45654 0 12.1875 0H65.8125C72.5434 0 78 5.45654 78 12.1875V65.8125C78 72.5434 72.5434 78 65.8125 78H12.1875C5.45654 78 0 72.5434 0 65.8125V12.1875ZM19.5 39.4083C19.5 28.6745 28.2063 19.968 38.9403 19.968C49.6743 19.968 58.3806 28.6745 58.5 39.4083C58.5 47.9956 53.0137 55.2708 45.2615 57.8945C44.3074 58.014 43.9496 57.4175 43.9496 56.9405V51.5736C43.9496 49.7845 43.3531 48.5918 42.6377 47.9956C46.9311 47.5186 51.4634 45.9681 51.4634 38.4542C51.4634 36.3075 50.6283 34.5184 49.4359 33.2066C49.4452 33.169 49.4583 33.122 49.4739 33.0659C49.6565 32.4073 50.1862 30.4958 49.1973 28.0781C49.1973 28.0781 47.5276 27.601 43.8302 30.1056C42.2799 29.7477 40.61 29.5093 38.9403 29.5093C37.2706 29.5093 35.6009 29.6285 34.0504 30.1056C30.3532 27.601 28.6835 28.0781 28.6835 28.0781C27.6293 30.6547 28.3006 32.6564 28.4381 33.0664L28.4449 33.0874C27.133 34.5184 26.4174 36.1881 26.4174 38.335C26.4174 45.8486 30.9497 47.5186 35.2431 47.9956C34.7661 48.4726 34.1698 49.3075 34.0504 50.6193C32.9772 51.0963 30.234 51.9314 28.4449 48.9496C28.4449 48.9496 27.3717 47.0413 25.4633 46.9221C25.4633 46.9221 23.5551 46.9221 25.3442 48.1148C25.3442 48.1148 26.656 48.7112 27.4909 50.9771C27.4909 50.9771 28.6835 54.7938 34.0504 53.6011V56.9405C34.0504 57.4175 33.6926 58.014 32.7385 57.8945C25.1055 55.2708 19.5 47.9956 19.5 39.4083Z" fill="black"/>
</svg>
