<svg width="78" height="78" viewBox="0 0 78 78" fill="none" xmlns="http://www.w3.org/2000/svg">
<path fill-rule="evenodd" clip-rule="evenodd" d="M0 12.1875C0 5.45654 5.45654 0 12.1875 0H65.8125C72.5434 0 78 5.45654 78 12.1875V65.8125C78 72.5434 72.5434 78 65.8125 78H12.1875C5.45654 78 0 72.5434 0 65.8125V12.1875ZM19.9875 32.4188V58.5H28.275V32.4188H19.9875ZM19.5 24.1312C19.5 26.8125 21.45 28.7625 24.1312 28.7625C26.8125 28.7625 28.7625 26.8125 28.7625 24.1312C28.7625 21.45 26.8125 19.5 24.1312 19.5C21.6937 19.5 19.5 21.45 19.5 24.1312ZM50.2125 58.5H58.0125V42.4125C58.0125 34.3687 53.1375 31.6875 48.5062 31.6875C44.3625 31.6875 41.4375 34.3688 40.7063 36.075V32.4188H32.9062V58.5H41.1937V44.6062C41.1937 40.95 43.6312 39 46.0687 39C48.5062 39 50.2125 40.2188 50.2125 44.3625V58.5Z" fill="black"/>
</svg>
