<svg width="460" height="72" viewBox="0 0 460 72" fill="none" xmlns="http://www.w3.org/2000/svg">
<path d="M423.481 43.9973L447.494 43.9127" stroke="black" stroke-width="3.99447" stroke-miterlimit="10"/>
<path d="M454.949 43.8828L445.031 48.6952L447.494 43.9126L444.99 39.15L454.949 43.8828Z" fill="white"/>
<path d="M454.949 43.8828L445.032 48.6952L447.494 43.9126L444.99 39.15L454.949 43.8828Z" stroke="black" stroke-width="3.99447" stroke-miterlimit="10"/>
<path d="M367.211 70L403.319 5L439.432 70H367.211Z" stroke="black" stroke-width="3.99447" stroke-miterlimit="10"/>
<path d="M424.378 48.3319C424.378 48.9938 424.341 49.6557 424.274 50.3126C424.207 50.9745 424.108 51.6265 423.973 52.2784C423.839 52.9254 423.667 53.5673 423.47 54.1994C423.268 54.8364 423.035 55.4585 422.771 56.0706C422.511 56.6827 422.216 57.2799 421.889 57.8622C421.563 58.4494 421.21 59.0168 420.827 59.5642C420.443 60.1166 420.033 60.6491 419.593 61.1617C419.157 61.6693 418.696 62.162 418.209 62.6298C417.721 63.0976 417.208 63.5405 416.674 63.9636C416.14 64.3816 415.591 64.7748 415.015 65.143C414.44 65.5113 413.849 65.8547 413.242 66.1632C412.636 66.4768 412.008 66.7604 411.371 67.0142C410.738 67.2681 410.085 67.492 409.426 67.6811C408.768 67.8752 408.099 68.0345 407.42 68.1638C406.746 68.2932 406.062 68.3928 405.378 68.4575C404.688 68.5222 404.004 68.552 403.314 68.552C402.62 68.552 401.935 68.5222 401.246 68.4575C400.561 68.3928 399.877 68.2932 399.203 68.1638C398.524 68.0345 397.855 67.8752 397.197 67.6811C396.539 67.492 395.891 67.2681 395.253 67.0142C394.615 66.7604 393.988 66.4768 393.381 66.1632C392.775 65.8547 392.184 65.5113 391.608 65.143C391.033 64.7748 390.483 64.3816 389.949 63.9636C389.415 63.5405 388.902 63.0976 388.415 62.6298C387.928 62.162 387.466 61.6693 387.031 61.1617C386.59 60.6491 386.181 60.1166 385.797 59.5642C385.413 59.0168 385.061 58.4494 384.734 57.8622C384.408 57.2799 384.112 56.6827 383.853 56.0706C383.588 55.4585 383.355 54.8364 383.153 54.1994C382.956 53.5673 382.785 52.9254 382.65 52.2784C382.515 51.6265 382.417 50.9745 382.349 50.3126C382.282 49.6557 382.246 48.9938 382.246 48.3319C382.246 47.67 382.282 47.0081 382.349 46.3512C382.417 45.6893 382.515 45.0374 382.65 44.3854C382.785 43.7385 382.956 43.0965 383.153 42.4595C383.355 41.8274 383.588 41.2054 383.853 40.5932C384.112 39.9811 384.408 39.3839 384.734 38.7967C385.061 38.2144 385.413 37.6471 385.797 37.0946C386.181 36.5472 386.59 36.0147 387.031 35.5021C387.466 34.9895 387.928 34.5018 388.415 34.034C388.902 33.5662 389.415 33.1183 389.949 32.7003C390.483 32.2822 391.033 31.8841 391.608 31.5158C392.184 31.1476 392.775 30.8091 393.381 30.4956C393.988 30.1871 394.615 29.9034 395.253 29.6496C395.891 29.3958 396.539 29.1718 397.197 28.9827C397.855 28.7886 398.524 28.6294 399.203 28.5C399.877 28.3706 400.561 28.271 401.246 28.2064C401.935 28.1417 402.62 28.1118 403.314 28.1118C404.004 28.1118 404.688 28.1417 405.378 28.2064C406.062 28.271 406.746 28.3706 407.42 28.5C408.099 28.6294 408.768 28.7886 409.426 28.9827C410.085 29.1718 410.738 29.3958 411.371 29.6496C412.008 29.9034 412.636 30.1871 413.242 30.4956C413.849 30.8091 414.44 31.1476 415.015 31.5158C415.591 31.8841 416.14 32.2822 416.674 32.7003C417.208 33.1183 417.721 33.5662 418.209 34.034C418.696 34.5018 419.157 34.9895 419.593 35.5021C420.033 36.0147 420.443 36.5472 420.827 37.0946C421.21 37.6471 421.563 38.2144 421.889 38.7967C422.216 39.3839 422.511 39.9811 422.771 40.5932C423.035 41.2054 423.268 41.8274 423.47 42.4595C423.667 43.0965 423.839 43.7385 423.973 44.3854C424.108 45.0374 424.207 45.6893 424.274 46.3512C424.341 47.0081 424.378 47.67 424.378 48.3319V48.3319Z" stroke="black" stroke-width="3.99447"/>
<path d="M359.674 35.3329H386.761" stroke="black" stroke-width="3.99447" stroke-miterlimit="10"/>
<path d="M354.567 43.9973H381.655" stroke="black" stroke-width="3.99447" stroke-miterlimit="10"/>
<path d="M327 52L377 52" stroke="black" stroke-width="3.99447" stroke-miterlimit="10"/>
<path d="M0.0048955 51.9259L5.50471 51.2112C5.64327 54.4968 6.3041 56.745 7.4872 57.961C8.66497 59.167 10.2904 59.7675 12.3688 59.7675C13.8877 59.7675 15.204 59.4449 16.3125 58.7948C17.421 58.1347 18.1777 57.2413 18.5934 56.1147C19.0198 54.9931 19.2329 53.2064 19.2329 50.7546V21.1748H25.3509V50.4171C25.3509 54.0203 24.882 56.8046 23.944 58.7749C23.0061 60.7502 21.5245 62.2491 19.5101 63.2814C17.4903 64.3137 15.1187 64.8299 12.3901 64.8299C8.33989 64.8299 5.23825 63.7529 3.09588 61.5939C0.948177 59.4251 -0.080373 56.2041 0.0048955 51.9259Z" fill="black"/>
<path d="M32.4689 48.551C32.4689 42.7939 34.1849 38.5356 37.6276 35.7662C40.4948 33.4633 44.0014 32.3119 48.137 32.3119C52.7255 32.3119 56.4773 33.7165 59.3924 36.5206C62.3022 39.3148 63.7624 43.181 63.7624 48.1143C63.7624 52.1145 63.1122 55.2611 61.8225 57.564C60.5275 59.8569 58.6516 61.6337 56.1948 62.9042C53.7327 64.1599 51.0467 64.7902 48.137 64.7902C43.4578 64.7902 39.6794 63.4005 36.7962 60.6212C33.9078 57.832 32.4689 53.8069 32.4689 48.551ZM38.2884 48.551C38.2884 52.5364 39.2157 55.5192 41.081 57.5044C42.9569 59.4797 45.3071 60.4624 48.137 60.4624C50.9348 60.4624 53.2637 59.4698 55.129 57.4845C57.0049 55.4894 57.9428 52.452 57.9428 48.3724C57.9428 44.5359 57.0049 41.6226 55.129 39.6374C53.2531 37.6522 50.9188 36.6596 48.137 36.6596C45.3071 36.6596 42.9569 37.6472 41.081 39.6175C39.2157 41.5928 38.2884 44.5707 38.2884 48.551Z" fill="black"/>
<path d="M92.167 52.7002L97.7308 53.3751C97.1179 56.9485 95.5618 59.7477 93.0623 61.7726C90.5576 63.7876 87.4826 64.7902 83.832 64.7902C79.2702 64.7902 75.593 63.4005 72.8111 60.6212C70.0398 57.8419 68.6542 53.8615 68.6542 48.6702C68.6542 45.3102 69.2511 42.372 70.4449 39.8558C71.6386 37.3445 73.4559 35.4585 75.9021 34.1979C78.3429 32.9422 81.0022 32.3119 83.8747 32.3119C87.4986 32.3119 90.4616 33.1656 92.7639 34.8729C95.0661 36.5801 96.5424 39.0021 97.1979 42.1388L91.698 42.9329C91.1704 40.8434 90.2378 39.2751 88.9055 38.2279C87.5838 37.1708 85.9744 36.6397 84.0878 36.6397C81.2313 36.6397 78.9131 37.5926 77.1384 39.4984C75.3585 41.3943 74.4738 44.4019 74.4738 48.5312C74.4738 52.7002 75.3318 55.7326 77.0532 57.6235C78.7692 59.5194 81.0075 60.4624 83.7681 60.4624C85.9957 60.4624 87.8503 59.8271 89.3318 58.5566C90.824 57.286 91.7673 55.3355 92.167 52.7002Z" fill="black"/>
<path d="M154.049 49.0473L160.167 50.4767C158.888 55.1519 156.585 58.7104 153.26 61.1572C149.935 63.6089 145.868 64.8299 141.067 64.8299C136.105 64.8299 132.071 63.8918 128.959 62.0108C125.846 60.1199 123.469 57.3952 121.839 53.8317C120.218 50.2583 119.408 46.4219 119.408 42.3174C119.408 37.8457 120.325 33.9497 122.158 30.6245C123.992 27.2893 126.598 24.7631 129.982 23.0409C133.376 21.3088 137.107 20.4403 141.173 20.4403C145.778 20.4403 149.647 21.5421 152.791 23.7357C155.946 25.9195 158.142 28.9916 159.378 32.9472L153.367 34.2574C152.301 31.1357 150.75 28.8675 148.719 27.4481C146.684 26.0188 144.126 25.3041 141.045 25.3041C137.507 25.3041 134.544 26.0982 132.156 27.6863C129.779 29.2646 128.111 31.3888 127.147 34.0589C126.177 36.7191 125.697 39.4587 125.697 42.2777C125.697 45.9305 126.262 49.1218 127.402 51.8465C128.553 54.5762 130.328 56.611 132.732 57.961C135.146 59.301 137.762 59.9661 140.576 59.9661C143.987 59.9661 146.87 59.0529 149.231 57.2265C151.603 55.3901 153.207 52.6604 154.049 49.0473Z" fill="black"/>
<path d="M164.831 48.551C164.831 42.7939 166.547 38.5356 169.99 35.7662C172.857 33.4633 176.364 32.3119 180.499 32.3119C185.088 32.3119 188.84 33.7165 191.755 36.5206C194.665 39.3148 196.125 43.181 196.125 48.1143C196.125 52.1145 195.475 55.2611 194.185 57.564C192.89 59.8569 191.014 61.6337 188.557 62.9042C186.095 64.1599 183.409 64.7902 180.499 64.7902C175.82 64.7902 172.042 63.4005 169.159 60.6212C166.27 57.832 164.831 53.8069 164.831 48.551ZM170.651 48.551C170.651 52.5364 171.578 55.5192 173.443 57.5044C175.319 59.4797 177.67 60.4624 180.499 60.4624C183.297 60.4624 185.626 59.4698 187.491 57.4845C189.367 55.4894 190.305 52.452 190.305 48.3724C190.305 44.5359 189.367 41.6226 187.491 39.6374C185.615 37.6522 183.281 36.6596 180.499 36.6596C177.67 36.6596 175.319 37.6472 173.443 39.6175C171.578 41.5928 170.651 44.5707 170.651 48.551Z" fill="black"/>
<path d="M202.679 64.0953V33.0067H207.774V37.7117C209.064 35.5181 210.257 34.0688 211.355 33.3641C212.464 32.6643 213.679 32.3119 215.001 32.3119C216.903 32.3119 218.843 32.8777 220.82 33.9994L218.88 38.883C217.484 38.1286 216.098 37.7514 214.723 37.7514C213.487 37.7514 212.368 38.1038 211.377 38.8036C210.396 39.4935 209.698 40.4464 209.288 41.6623C208.659 43.5433 208.35 45.5931 208.35 47.8165V64.0953H202.679Z" fill="black"/>
<path d="M245.838 64.0953V60.1646C243.717 63.2516 240.605 64.7902 236.502 64.7902C233.842 64.7902 231.396 64.1053 229.168 62.7454C226.935 61.3855 225.203 59.4797 223.967 57.0279C222.741 54.5811 222.134 51.7621 222.134 48.5709C222.134 45.4739 222.688 42.6648 223.797 40.1337C224.916 37.6075 226.589 35.6769 228.806 34.3368C231.023 32.9869 233.501 32.3119 236.246 32.3119C238.26 32.3119 240.051 32.709 241.618 33.503C243.195 34.2872 244.474 35.3096 245.455 36.5801V21.1748H251.082V64.0953H245.838ZM227.953 48.5709C227.953 52.5562 228.854 55.5341 230.661 57.5044C232.462 59.4797 234.588 60.4624 237.034 60.4624C239.507 60.4624 241.607 59.5243 243.344 57.6434C245.076 55.7673 245.945 52.8937 245.945 49.0275C245.945 44.7692 245.06 41.6425 243.302 39.6572C241.538 37.6621 239.363 36.6595 236.779 36.6595C234.263 36.6595 232.158 37.6224 230.469 39.5381C228.79 41.4439 227.953 44.4565 227.953 48.5709Z" fill="black"/>
<path d="M257.872 48.551C257.872 42.7939 259.588 38.5356 263.03 35.7662C265.897 33.4633 269.404 32.3119 273.54 32.3119C278.128 32.3119 281.88 33.7165 284.795 36.5206C287.705 39.3148 289.165 43.181 289.165 48.1143C289.165 52.1145 288.515 55.2611 287.225 57.564C285.93 59.8569 284.054 61.6337 281.598 62.9042C279.135 64.1599 276.449 64.7902 273.54 64.7902C268.861 64.7902 265.082 63.4005 262.199 60.6212C259.31 57.832 257.872 53.8069 257.872 48.551ZM263.691 48.551C263.691 52.5364 264.618 55.5192 266.484 57.5044C268.36 59.4797 270.71 60.4624 273.54 60.4624C276.338 60.4624 278.666 59.4698 280.532 57.4845C282.408 55.4894 283.346 52.452 283.346 48.3724C283.346 44.5359 282.408 41.6226 280.532 39.6374C278.656 37.6522 276.322 36.6596 273.54 36.6596C270.71 36.6596 268.36 37.6472 266.484 39.6175C264.618 41.5928 263.691 44.5707 263.691 48.551Z" fill="black"/>
<path d="M305.056 64.0953L292.351 33.0067H298.342L305.504 51.6281C306.272 53.6431 306.98 55.7276 307.636 57.8816C308.131 56.2537 308.835 54.2883 309.746 51.9855L317.165 33.0067H322.984L310.343 64.0953H305.056Z" fill="black"/>
<path d="M338.295 33.2387L351 64.3273H345.01L337.847 45.7059C337.08 43.6909 336.371 41.6065 335.715 39.4525C335.22 41.0804 334.516 43.0457 333.605 45.3486L326.187 64.3273H320.367L333.008 33.2387H338.295Z" fill="black"/>
</svg>
