<svg width="78" height="78" viewBox="0 0 78 78" fill="none" xmlns="http://www.w3.org/2000/svg">
<path fill-rule="evenodd" clip-rule="evenodd" d="M12.1875 0H65.8125C72.5434 0 78 5.45654 78 12.1875V65.8125C78 72.5434 72.5434 78 65.8125 78H12.1875C5.45656 78 0 72.5434 0 65.8125V12.1875C0 5.45654 5.45656 0 12.1875 0ZM23.6438 28.5187C23.8875 28.7625 24.1312 29.25 24.1312 29.7375V46.8C24.375 47.5312 24.1312 48.0187 23.6438 48.5062L19.5 53.3812V54.1125H30.9562V53.3812L26.8125 48.5062C26.5688 48.0187 26.325 47.5312 26.325 46.8V31.9313L36.5625 54.1125H37.5375L46.3125 31.9313V49.725C46.3125 50.2125 46.3125 50.4562 46.0687 50.7L42.9 53.8688V54.6H58.2562V53.8688L55.3313 50.9437C55.0875 50.7 55.0875 50.2125 55.0875 49.9688V28.0312C54.8438 27.5438 55.0875 27.3 55.3313 27.0563L58.5 24.1312V23.4H47.775L39.975 42.6562L31.2 23.4H19.9875V24.1312L23.6438 28.5187Z" fill="black"/>
</svg>
